<?xml version="1.0" encoding="UTF-8" standalone="no"?>
<svg
   xmlns:dc="http://purl.org/dc/elements/1.1/"
   xmlns:cc="http://creativecommons.org/ns#"
   xmlns:rdf="http://www.w3.org/1999/02/22-rdf-syntax-ns#"
   xmlns:svg="http://www.w3.org/2000/svg"
   xmlns="http://www.w3.org/2000/svg"
   xmlns:sodipodi="http://sodipodi.sourceforge.net/DTD/sodipodi-0.dtd"
   xmlns:inkscape="http://www.inkscape.org/namespaces/inkscape"
   id="Layer_1"
   viewBox="0 0 245 240"
   version="1.1"
   sodipodi:docname="Discord-Logo-White.svg"
   inkscape:version="0.92.3 (2405546, 2018-03-11)">
  <metadata
     id="metadata13">
    <rdf:RDF>
      <cc:Work
         rdf:about="">
        <dc:format>image/svg+xml</dc:format>
        <dc:type
           rdf:resource="http://purl.org/dc/dcmitype/StillImage" />
      </cc:Work>
    </rdf:RDF>
  </metadata>
  <defs
     id="defs11" />
  <sodipodi:namedview
     pagecolor="#ffffff"
     bordercolor="#666666"
     borderopacity="1"
     objecttolerance="10"
     gridtolerance="10"
     guidetolerance="10"
     inkscape:pageopacity="0"
     inkscape:pageshadow="2"
     inkscape:window-width="1920"
     inkscape:window-height="1001"
     id="namedview9"
     showgrid="false"
     inkscape:zoom="2.8284271"
     inkscape:cx="33.372087"
     inkscape:cy="120.82397"
     inkscape:window-x="-9"
     inkscape:window-y="-9"
     inkscape:window-maximized="1"
     inkscape:current-layer="Layer_1" />
  <style
     id="style2">.st0{fill:#FFFFFF;}</style>
  <path
     class="st0"
     d="m 150.9,150.6 c 0,0 -3.6,-4.3 -6.6,-8.1 13.1,-3.7 18.1,-11.9 18.1,-11.9 -4.1,2.7 -8,4.6 -11.5,5.9 -5,2.1 -9.8,3.5 -14.5,4.3 -9.6,1.8 -18.4,1.3 -25.9,-0.1 -5.7,-1.1 -10.6,-2.7 -14.7,-4.3 -2.3,-0.9 -4.8,-2 -7.3,-3.4 -0.3,-0.2 -0.6,-0.3 -0.9,-0.5 -0.2,-0.1 -0.3,-0.2 -0.4,-0.3 -1.8,-1 -2.8,-1.7 -2.8,-1.7 0,0 4.8,8 17.5,11.8 -3,3.8 -6.7,8.3 -6.7,8.3 -22.1,-0.7 -30.5,-15.2 -30.5,-15.2 0,-32.2 14.4,-58.3 14.4,-58.3 14.4,-10.8 28.1,-10.5 28.1,-10.5 l 1,1.2 c -18,5.2 -26.3,13.1 -26.3,13.1 0,0 2.2,-1.2 5.9,-2.9 10.7,-4.7 19.2,-6 22.7,-6.3 0.6,-0.1 1.1,-0.2 1.7,-0.2 6.1,-0.8 13,-1 20.2,-0.2 9.5,1.1 19.7,3.9 30.1,9.6 0,0 -7.9,-7.5 -24.9,-12.7 l 1.4,-1.6 c 0,0 13.7,-0.3 28.1,10.5 0,0 14.4,26.1 14.4,58.3 0,0 -8.5,14.5 -30.6,15.2 z"
     id="path6"
     inkscape:connector-curvature="0"
     style="fill:#ffffff"
     sodipodi:nodetypes="cccccccccccccccccccccccccccc" />
  <path
     style="fill:#7289DA;stroke-width:0.25"
     d="m 102.38462,125.77272 c -4.607283,-1.08585 -7.946682,-5.53618 -7.970262,-10.62176 -0.0051,-1.11 0.123159,-2.51625 0.285122,-3.125 0.79093,-2.97276 3.217267,-5.90899 5.9355,-7.18285 1.24901,-0.58533 1.75052,-0.67338 3.81316,-0.66945 2.04147,0.004 2.57575,0.098 3.80452,0.67001 5.71074,2.65858 7.84567,9.72558 4.77183,15.79564 -1.92338,3.79819 -6.64319,6.07536 -10.63987,5.13341 z"
     id="path3810"
     inkscape:connector-curvature="0" />
  <path
     style="fill:#7289DA;stroke-width:0.25"
     d="m 138.88462,125.77272 c -4.60728,-1.08585 -7.94668,-5.53618 -7.97026,-10.62176 -0.005,-1.11 0.12316,-2.51625 0.28512,-3.125 0.79093,-2.97276 3.21727,-5.90899 5.9355,-7.18285 1.25041,-0.58599 1.74821,-0.67314 3.81316,-0.66758 2.15954,0.006 2.52593,0.0797 4.03871,0.81392 5.516,2.67733 7.55163,9.69799 4.53764,15.64986 -1.92338,3.79819 -6.64319,6.07536 -10.63987,5.13341 z"
     id="path3812"
     inkscape:connector-curvature="0" />
</svg>
